<svg xmlns="http://www.w3.org/2000/svg" viewBox="0 0 64 64" fill="none">
  <!-- Background circle -->
  <circle cx="32" cy="32" r="30" fill="#1e40af"/>
  <circle cx="32" cy="32" r="28" fill="url(#grad)"/>
  <!-- Truck body -->
  <rect x="10" y="24" width="22" height="14" rx="2" fill="white" opacity="0.95"/>
  <rect x="32" y="18" width="14" height="20" rx="2" fill="white" opacity="0.85"/>
  <rect x="34" y="21" width="10" height="8" rx="1.5" fill="#93c5fd"/>
  <!-- Truck wheels -->
  <circle cx="18" cy="40" r="4" fill="#1e3a5f"/>
  <circle cx="18" cy="40" r="2" fill="#e2e8f0"/>
  <circle cx="30" cy="40" r="4" fill="#1e3a5f"/>
  <circle cx="30" cy="40" r="2" fill="#e2e8f0"/>
  <circle cx="40" cy="40" r="4" fill="#1e3a5f"/>
  <circle cx="40" cy="40" r="2" fill="#e2e8f0"/>
  <!-- Car silhouette (small, lower right) -->
  <path d="M44 34 C44 34 46 28 50 28 L56 28 C58 28 60 34 60 34 Z" fill="white" opacity="0.7"/>
  <rect x="43" y="34" width="18" height="7" rx="2" fill="white" opacity="0.8"/>
  <circle cx="48" cy="42" r="2.5" fill="#1e3a5f"/>
  <circle cx="48" cy="42" r="1.2" fill="#e2e8f0"/>
  <circle cx="57" cy="42" r="2.5" fill="#1e3a5f"/>
  <circle cx="57" cy="42" r="1.2" fill="#e2e8f0"/>
  <defs>
    <linearGradient id="grad" x1="0" y1="0" x2="64" y2="64">
      <stop offset="0%" stop-color="#2563eb"/>
      <stop offset="100%" stop-color="#1e40af"/>
    </linearGradient>
  </defs>
</svg>
