<svg xmlns="http://www.w3.org/2000/svg" viewBox="0 0 280 80" fill="none">
  <!-- Cargo Truck -->
  <rect x="8" y="28" width="38" height="24" rx="3" fill="#1e40af"/>
  <rect x="46" y="18" width="22" height="34" rx="3" fill="#2563eb"/>
  <rect x="49" y="22" width="16" height="12" rx="2" fill="#93c5fd"/>
  <circle cx="20" cy="56" r="6" fill="#1e3a5f"/>
  <circle cx="20" cy="56" r="3" fill="#94a3b8"/>
  <circle cx="42" cy="56" r="6" fill="#1e3a5f"/>
  <circle cx="42" cy="56" r="3" fill="#94a3b8"/>
  <circle cx="58" cy="56" r="6" fill="#1e3a5f"/>
  <circle cx="58" cy="56" r="3" fill="#94a3b8"/>
  <!-- Car -->
  <path d="M82 38 C82 38 86 24 96 24 L112 24 C122 24 126 38 126 38 Z" fill="#3b82f6"/>
  <rect x="78" y="38" width="52" height="16" rx="4" fill="#2563eb"/>
  <rect x="86" y="27" width="14" height="10" rx="2" fill="#bfdbfe"/>
  <rect x="106" y="27" width="14" height="10" rx="2" fill="#bfdbfe"/>
  <circle cx="90" cy="56" r="5.5" fill="#1e3a5f"/>
  <circle cx="90" cy="56" r="2.8" fill="#94a3b8"/>
  <circle cx="118" cy="56" r="5.5" fill="#1e3a5f"/>
  <circle cx="118" cy="56" r="2.8" fill="#94a3b8"/>
  <!-- Brand Text -->
  <text x="142" y="36" font-family="Inter, system-ui, sans-serif" font-size="22" font-weight="700" fill="#1e40af">Ease AI</text>
  <text x="142" y="56" font-family="Inter, system-ui, sans-serif" font-size="16" font-weight="500" fill="#64748b">Fleet Mgr</text>
</svg>
